<svg width="200" height="150" viewBox="0 0 200 150" xmlns="http://www.w3.org/2000/svg">
  <rect x="15" y="108" width="170" height="6" fill="#3a2a1a" rx="1"/>
  <rect x="22" y="55" width="18" height="53" fill="#f87171" rx="2"/>
  <rect x="44" y="45" width="22" height="63" fill="#4ade80" rx="2"/>
  <rect x="70" y="60" width="16" height="48" fill="#38bdf8" rx="2"/>
  <rect x="90" y="40" width="22" height="68" fill="#ffd700" rx="2"/>
  <rect x="116" y="52" width="18" height="56" fill="#b44dff" rx="2"/>
  <rect x="138" y="48" width="20" height="60" fill="#ff9f1c" rx="2"/>
  <rect x="162" y="58" width="16" height="50" fill="#f472b6" rx="2"/>
  <rect x="30" y="18" width="140" height="22" fill="#0d1a2e" rx="4" stroke="#38bdf8" stroke-width="1"/>
  <rect x="36" y="24" width="80" height="10" fill="#38bdf8" rx="2" opacity=".3"/>
  <circle cx="158" cy="29" r="6" fill="none" stroke="#38bdf8" stroke-width="1.5"/>
  <line x1="162" y1="33" x2="166" y2="37" stroke="#38bdf8" stroke-width="1.5" stroke-linecap="round"/>
  <path d="M24 130 L24 140 L38 140" fill="none" stroke="#4ade80" stroke-width="1.5" stroke-linecap="round"/>
  <text x="42" y="143" font-family="monospace" font-size="7" fill="#4ade80" opacity=".8">devolver</text>
  <rect x="120" y="128" width="52" height="14" fill="#ffd700" rx="2" opacity=".15" stroke="#ffd700" stroke-width="0.5"/>
  <text x="122" y="138" font-family="monospace" font-size="7" fill="#ffd700" opacity=".8">emprestar</text>
</svg>