<svg width="200" height="150" viewBox="0 0 200 150" xmlns="http://www.w3.org/2000/svg">
  <rect x="55" y="10" width="90" height="120" fill="#1a1410" rx="8" stroke="#ff9f1c" stroke-width="1.5"/>
  <rect x="63" y="18" width="74" height="30" fill="#0d1208" rx="4" stroke="#4ade80" stroke-width="0.5"/>
  <rect x="65" y="20" width="70" height="26" fill="#0f1a0a" rx="3"/>
  <text x="128" y="37" text-anchor="end" font-family="monospace" font-size="13" fill="#4ade80">42</text>
  <rect x="63" y="55" width="18" height="14" fill="#2a2020" rx="2" stroke="#888" stroke-width="0.5"/>
  <rect x="85" y="55" width="18" height="14" fill="#2a2020" rx="2" stroke="#888" stroke-width="0.5"/>
  <rect x="107" y="55" width="18" height="14" fill="#ff9f1c" rx="2" opacity=".8"/>
  <rect x="63" y="73" width="18" height="14" fill="#2a2020" rx="2" stroke="#888" stroke-width="0.5"/>
  <rect x="85" y="73" width="18" height="14" fill="#2a2020" rx="2" stroke="#888" stroke-width="0.5"/>
  <rect x="107" y="73" width="18" height="14" fill="#2a2020" rx="2" stroke="#888" stroke-width="0.5"/>
  <rect x="63" y="91" width="18" height="14" fill="#2a2020" rx="2" stroke="#888" stroke-width="0.5"/>
  <rect x="85" y="91" width="18" height="14" fill="#2a2020" rx="2" stroke="#888" stroke-width="0.5"/>
  <rect x="107" y="91" width="18" height="28" fill="#f87171" rx="2" opacity=".9"/>
  <rect x="63" y="109" width="40" height="14" fill="#2a2020" rx="2" stroke="#888" stroke-width="0.5"/>
</svg>