<svg width="200" height="150" viewBox="0 0 200 150" xmlns="http://www.w3.org/2000/svg">
  <rect x="55" y="18" width="74" height="92" fill="#2a1515" rx="4" stroke="#f87171" stroke-width="1"/>
  <rect x="63" y="26" width="74" height="92" fill="#331a1a" rx="4" stroke="#f87171" stroke-width="1.5"/>
  <rect x="66" y="30" width="67" height="14" fill="#f87171" rx="2" opacity=".9"/>
  <rect x="69" y="33" width="22" height="8" fill="#fff" rx="1" opacity=".8"/>
  <rect x="69" y="50" width="57" height="4" fill="#f87171" rx="1" opacity=".4"/>
  <rect x="69" y="58" width="50" height="4" fill="#888" rx="1" opacity=".3"/>
  <rect x="69" y="66" width="54" height="4" fill="#888" rx="1" opacity=".3"/>
  <rect x="69" y="74" width="37" height="4" fill="#888" rx="1" opacity=".3"/>
  <rect x="69" y="84" width="57" height="24" fill="#1a0a0a" rx="2" stroke="#f87171" stroke-width="0.5" opacity=".6"/>
  <line x1="69" y1="93" x2="126" y2="93" stroke="#f87171" stroke-width="0.5" opacity=".5"/>
  <line x1="94" y1="84" x2="94" y2="108" stroke="#f87171" stroke-width="0.5" opacity=".5"/>
  <circle cx="158" cy="42" r="22" fill="#2a1010" stroke="#f87171" stroke-width="1.5"/>
  <text x="158" y="47" text-anchor="middle" font-family="monospace" font-size="11" fill="#f87171" font-weight="700">JS</text>
</svg>