<svg width="200" height="150" viewBox="0 0 200 150" xmlns="http://www.w3.org/2000/svg">
  <rect x="0" y="110" width="200" height="40" fill="#3d2210"/>
  <rect x="28" y="72" width="6" height="38" fill="#2d8a3e"/>
  <ellipse cx="31" cy="70" rx="14" ry="18" fill="#4ade80"/>
  <ellipse cx="20" cy="77" rx="10" ry="12" fill="#22c55e"/>
  <rect x="78" y="62" width="6" height="48" fill="#2d8a3e"/>
  <ellipse cx="81" cy="60" rx="16" ry="20" fill="#4ade80"/>
  <rect x="128" y="67" width="6" height="43" fill="#2d8a3e"/>
  <ellipse cx="131" cy="65" rx="15" ry="19" fill="#4ade80"/>
  <rect x="166" y="74" width="6" height="36" fill="#2d8a3e"/>
  <ellipse cx="169" cy="72" rx="13" ry="16" fill="#4ade80"/>
  <ellipse cx="55" cy="48" rx="4" ry="6" fill="#38bdf8" opacity=".9"/>
  <ellipse cx="105" cy="33" rx="4" ry="6" fill="#38bdf8" opacity=".9"/>
  <ellipse cx="152" cy="43" rx="4" ry="6" fill="#38bdf8" opacity=".9"/>
  <rect x="0" y="24" width="200" height="8" fill="#888" rx="3"/>
  <rect x="50" y="32" width="6" height="18" fill="#666" rx="1"/>
  <rect x="100" y="32" width="6" height="18" fill="#666" rx="1"/>
  <rect x="150" y="32" width="6" height="18" fill="#666" rx="1"/>
  <rect x="155" y="8" width="36" height="14" fill="#0d1a2e" rx="2" stroke="#00e5c8" stroke-width="1"/>
  <rect x="158" y="11" width="10" height="8" fill="#00e5c8" rx="1" opacity=".8"/>
  <circle cx="177" cy="12" r="3" fill="#ff6b35"/>
  <circle cx="185" cy="12" r="3" fill="#4ade80"/>
</svg>